<?xml version="1.0" standalone="no"?>
<!DOCTYPE svg PUBLIC "-//W3C//DTD SVG 20010904//EN"
 "http://www.w3.org/TR/2001/REC-SVG-20010904/DTD/svg10.dtd">
<svg version="1.0" xmlns="http://www.w3.org/2000/svg"
 width="341.000000pt" height="150.000000pt" viewBox="0 0 341.000000 150.000000"
 preserveAspectRatio="xMidYMid meet">

<g transform="translate(0.000000,150.000000) scale(0.100000,-0.100000)"
fill="#000000" stroke="none">
<path d="M848 1163 c-17 -21 -123 -507 -113 -523 3 -5 24 -10 45 -10 79 0 82
-7 49 -155 -12 -52 -18 -102 -15 -110 4 -12 28 -15 123 -15 65 0 124 4 131 9
8 5 25 60 39 122 13 62 31 122 40 131 11 12 31 18 63 18 30 0 52 6 60 15 15
18 112 470 108 505 -3 23 -8 25 -54 28 -36 2 -54 -1 -64 -12 -7 -9 -29 -97
-50 -196 -21 -99 -43 -187 -50 -196 -10 -11 -28 -14 -64 -12 -44 3 -51 6 -54
25 -2 12 13 98 33 192 30 138 35 174 25 186 -10 12 -38 15 -125 15 -94 0 -114
-3 -127 -17z"/>
<path d="M1538 1163 c-17 -20 -183 -788 -173 -803 4 -6 108 -10 265 -10 258 0
260 0 274 23 17 27 169 747 164 779 l-3 23 -256 3 c-234 2 -257 1 -271 -15z
m337 -273 c7 -11 -62 -354 -77 -382 -12 -24 -116 -26 -125 -3 -7 19 65 364 79
383 12 15 114 16 123 2z"/>
<path d="M2232 1163 c-15 -14 -36 -98 -101 -405 -45 -214 -79 -392 -76 -398 4
-6 102 -10 264 -10 220 0 260 2 271 15 7 9 44 158 82 333 77 357 93 445 84
467 -7 19 -84 21 -109 3 -13 -10 -35 -97 -82 -323 -36 -171 -69 -320 -75 -333
-8 -19 -17 -22 -71 -22 l-62 0 6 43 c3 23 33 172 67 330 48 227 59 292 49 303
-19 23 -220 20 -247 -3z"/>
</g>
</svg>
